<svg xmlns="http://www.w3.org/2000/svg" width="38" height="38.03" viewBox="0 0 38 38.03">
  <defs>
    <style>
      .cls-1 {
        fill: #4e888c;
        fill-rule: evenodd;
      }
    </style>
  </defs>
  <path id="вправо" class="cls-1" d="M1528.13,2537.53a1.9,1.9,0,0,0-2.68,0h0a1.907,1.907,0,0,0,0,2.69l12.22,12.23a0.961,0.961,0,0,1-.67,1.64h-28.08a1.908,1.908,0,0,0-1.93,1.88v0.01a1.934,1.934,0,0,0,1.93,1.91H1537a0.933,0.933,0,0,1,.67,1.6l-12.28,12.28a1.9,1.9,0,0,0,0,2.68h0a1.886,1.886,0,0,0,2.68-.01l15.81-15.8h0a3.8,3.8,0,0,0,0-5.37C1543.53,2552.93,1527.79,2537.19,1528.13,2537.53Z" transform="translate(-1507 -2536.97)"/>
</svg>
