<svg xmlns="http://www.w3.org/2000/svg" width="40.287" height="39.998" viewBox="0 0 39.281 39">
  <defs>
    <style>
      .cls-1 {
        fill: #fff;
        fill-rule: evenodd;
      }
    </style>
  </defs>
  <path id="иконка_детали" data-name="иконка детали" class="cls-1" d="M412.305,35.545h-3.252c-0.473,0-1.123-.031-1.121-0.5a8.811,8.811,0,0,0-1.822-5.55,0.63,0.63,0,0,1,.107-0.992l2.3-2.162a1.87,1.87,0,0,0,0-2.7,1.975,1.975,0,0,0-2.778.03l-2.3,2.3a0.988,0.988,0,0,1-1.245.114,13.725,13.725,0,0,0-4.8-1.969,0.973,0.973,0,0,1-.805-0.945v-3.23a1.964,1.964,0,0,0-3.928,0v3.23a0.977,0.977,0,0,1-.805.949,13.715,13.715,0,0,0-4.8,1.973,0.988,0.988,0,0,1-1.245-.107l-2.3-2.284a1.974,1.974,0,0,0-2.777,0,1.94,1.94,0,0,0,0,2.759l2.3,2.283a0.952,0.952,0,0,1,.107,1.237,10.005,10.005,0,0,0-1.871,5.251c-0.051.467-.6,0.311-1.071,0.311h-3.253a1.951,1.951,0,1,0,0,3.9h3.253a1.074,1.074,0,0,1,1.141.631,11.712,11.712,0,0,0,1.8,4.444,1.34,1.34,0,0,1-.107,1.48l-2.3,2.406a2.013,2.013,0,0,0,0,2.819,1.974,1.974,0,0,0,2.777.031l2.3-2.269a0.987,0.987,0,0,1,1.245-.1,13.721,13.721,0,0,0,4.8,1.977,0.983,0.983,0,0,1,.805.953v3.23a1.964,1.964,0,0,0,3.928,0V51.82a0.978,0.978,0,0,1,.805-0.949,13.722,13.722,0,0,0,4.8-1.973A0.986,0.986,0,0,1,403.44,49l2.3,2.283a1.975,1.975,0,0,0,2.778,0,1.942,1.942,0,0,0,0-2.758l-2.3-2.284a0.971,0.971,0,0,1-.107-1.237,14.053,14.053,0,0,0,1.987-3.788c0.15-.445.483-1.775,0.955-1.775h3.253A1.951,1.951,0,1,0,412.305,35.545Zm-8.209,4.6a9.654,9.654,0,0,1-6.8,6.752,9.82,9.82,0,0,1-12.133-12.051,9.654,9.654,0,0,1,6.8-6.752A9.82,9.82,0,0,1,404.1,40.145Zm-7.5-2.649a1.964,1.964,0,1,1-1.964-1.951A1.957,1.957,0,0,1,396.594,37.5Z" transform="translate(-375 -18)"/>
</svg>
